<svg xmlns="http://www.w3.org/2000/svg" viewBox="0 0 515.02 89.5"><defs><style>.a{fill:#237073;}.b{fill:#0095da;}.c{fill:#522e91;}.d{fill:#2aa5b9;}.e{fill:#f58220;}</style></defs><path class="a" d="M472.56,25.43c0-5.15-1.79-7.51-4.59-7.51-2.47,0-3.9,1.43-4.45,3.83-2.16-3.31-4.76-4.83-7.42-4.83-9.08,0-16.47,11.31-16.47,32.26,0,16.46,7.39,23.63,16.58,23.63a10.79,10.79,0,0,0,7-3.23c-1.33,7.55-4.06,9-8.54,9s-5.83-1.8-9.19-1.8c-4.25,0-6.72,2.58-6.72,5.72,0,4.25,4.71,7,14.23,7,14.23,0,19.71-6.6,19.71-26.32Zm-16.35,37.3c-4.26,0-8.07-4.59-8.07-15.35,0-14.22,4-19.6,8.07-19.6,3.23,0,6.39,3.46,7.52,12.16.16,3.11.32,6.05.39,9.36C463.72,58.69,460.31,62.73,456.21,62.73Z"/><path class="a" d="M416.89,16.92c-9.08,0-16.47,11.31-16.47,32.26,0,16.46,7.39,25,16.58,25s16.47-8.52,16.47-25C433.47,28.23,426.07,16.92,416.89,16.92ZM417,63.18c-4.26,0-8.07-5-8.07-15.8,0-14.22,4-19.6,8.07-19.6S425,33.16,425,47.38C425,58.14,421.37,63.18,417,63.18Z"/><path class="a" d="M390,72.81c2.69,0,4.15-1.56,4.15-5s-.67-6.72-.9-10.75a280.89,280.89,0,0,1,0-41.23c.23-4,.9-7.39.9-10.75s-1.35-5-4-5c-2.25,0-4,1.9-4.82,7a116,116,0,0,0-1.91,23.63c0,17.14.12,22.18,1.8,35.29C385.86,70.91,387.76,72.81,390,72.81Z"/><path class="a" d="M360.32,16.92c-9.08,0-16.47,11.31-16.47,32.26,0,16.46,7.39,25,16.58,25s16.47-8.52,16.47-25C376.9,28.23,369.5,16.92,360.32,16.92Zm.11,46.26c-4.26,0-8.07-5-8.07-15.8,0-14.22,4-19.6,8.07-19.6s7.95,5.38,7.95,19.6C368.38,58.14,364.8,63.18,360.43,63.18Z"/><path class="b" d="M324.13,16.8a10.41,10.41,0,0,0-9.08,5.05c-.53-2.46-2-3.93-4.47-3.93-2.8,0-4.59,2.36-4.59,7.51l-.11,37.75c0,7.39,1.56,9.63,4.59,9.63s4.7-1.79,4.7-4.93-.78-4.7-.78-14.89c0-6.7.39-11.48.66-17.7.77-5.49,2.91-7.51,6.17-7.51,3.92,0,6.16,2.91,6.16,15.46,0,11.09-.78,20.84-.78,25.09a4.51,4.51,0,0,0,4.48,4.82,4.69,4.69,0,0,0,4.71-4.82c0-5.15.33-20.61.33-34.28C336.12,21.4,331.86,16.8,324.13,16.8Z"/><path class="b" d="M282.24,16.92c-9.07,0-16.47,11.31-16.47,32.26,0,16.46,7.4,25,16.58,25s16.47-8.52,16.47-25C298.82,28.23,291.42,16.92,282.24,16.92Zm.11,46.26c-4.26,0-8.06-5-8.06-15.8,0-14.22,4-19.6,8.06-19.6s7.95,5.38,7.95,19.6C290.3,58.14,286.72,63.18,282.35,63.18Z"/><path class="b" d="M247.06,16.8a12.9,12.9,0,0,0-10.36,5.66c-1.58-3.92-4.68-5.66-8.9-5.66a12.83,12.83,0,0,0-10,5.4c-.47-2.67-1.92-4.28-4.54-4.28-2.8,0-4.59,2.36-4.59,7.51l-.11,37.75c0,7.39,1.57,9.63,4.59,9.63s4.71-1.79,4.71-4.93S217,63.18,217,53c0-6.87.42-11.72.68-18.18,1-5.19,3.38-7,6.27-7,3.25,0,5.15,3.47,5.15,14.9,0,12.88-.56,20-.56,24.53,0,3.36,1.46,5.6,4.37,5.6,3.25,0,4.93-2.24,4.93-5.49V36.05c.67-6.07,2.87-8.27,6.27-8.27,3.92,0,6.16,2.91,6.16,15.46,0,11.09-.78,20.84-.78,25.09A4.51,4.51,0,0,0,254,73.15a4.69,4.69,0,0,0,4.7-4.82c0-5.15.34-20.61.34-34.28C259.05,21.4,254.79,16.8,247.06,16.8Z"/><path class="b" d="M188,16.8a12.92,12.92,0,0,0-10.37,5.66c-1.58-3.92-4.68-5.66-8.9-5.66a12.85,12.85,0,0,0-10,5.4c-.46-2.67-1.91-4.28-4.53-4.28-2.8,0-4.59,2.36-4.59,7.51l-.12,37.75c0,7.39,1.57,9.63,4.6,9.63s4.7-1.79,4.7-4.93S158,63.18,158,53c0-6.87.41-11.72.68-18.18,1-5.19,3.37-7,6.26-7,3.25,0,5.16,3.47,5.16,14.9,0,12.88-.56,20-.56,24.53,0,3.36,1.45,5.6,4.36,5.6,3.25,0,4.93-2.24,4.93-5.49V36.05c.68-6.07,2.87-8.27,6.28-8.27,3.92,0,6.16,2.91,6.16,15.46,0,11.09-.79,20.84-.79,25.09A4.52,4.52,0,0,0,195,73.15a4.69,4.69,0,0,0,4.71-4.82c0-5.15.34-20.61.34-34.28C200,21.4,195.76,16.8,188,16.8Z"/><path class="b" d="M126.5,16.92c-9.08,0-16.47,11.31-16.47,32.26,0,16.46,7.39,25,16.58,25s16.46-8.52,16.46-25C143.07,28.23,135.68,16.92,126.5,16.92Zm.11,46.26c-4.26,0-8.07-5-8.07-15.8,0-14.22,4-19.6,8.07-19.6s8,5.38,8,19.6C134.56,58.14,131,63.18,126.61,63.18Z"/><path class="b" d="M91.47,73.93c8.17,0,14.9-6.61,14.9-14.11,0-4.71-1.46-6.16-4-6.16-5.82,0-2.57,9.3-10.86,9.3-4,0-7.62-5.72-7.62-17,0-13,3.7-19.61,7.06-19.61,2.35,0,4,2.47,4,8.52,0,3.36,1.57,4.93,4,4.93,2.8,0,3.92-2.47,3.92-5.38,0-12.55-4.37-17.59-11.31-17.59-9.19,0-16.36,10.87-16.36,33.39C75.22,64.08,81.83,73.93,91.47,73.93Z"/><path class="a" d="M510.43,17.92c-2.69,0-4.15,1.57-4.15,5.49,0,16.15-3.17,29.73-7.48,39.38-4.75-5.36-9.88-19.77-9.88-39.38,0-3.25-1.57-5.49-4.48-5.49s-4.26,2.13-4.26,7c0,20.12,6.19,40.55,13.94,46.33-3.36,4.73-6.92,7.33-10,7.33-4.26,0-6.72,2.57-6.72,5.71S480,89.5,484.1,89.5C497.43,89.5,515,61.28,515,25.32,515,19.83,513.23,17.92,510.43,17.92Z"/><path class="c" d="M27.2,28c-.27-4.78-3.58-9-7.6-11.57-2.51-1.63-5.53-2.79-8.46-2.2-6.2,1.25-12.12,7-11,17A11.07,11.07,0,0,0,1,36.25c2.05,4.32,6.2,6.65,12.2,7.25,3.09.31,6.46-.21,8.73-2.33a13,13,0,0,0,2.46-3.44C26,34.72,27.4,31.39,27.2,28ZM10,28.27a2.33,2.33,0,0,1-2,1.13H8a2.39,2.39,0,0,1-2-1,2.47,2.47,0,0,1-.26-2.19,2.5,2.5,0,0,1,1.61-1.59,2.22,2.22,0,0,1,2.08.47,1.75,1.75,0,0,1,.49.72l.07.09A2.34,2.34,0,0,1,10,28.27Zm3.72-7.62a2.33,2.33,0,0,1,2.59-1,3.83,3.83,0,0,1,1.3.62,2.48,2.48,0,0,1,.31.18,2.15,2.15,0,0,1,.29,3.23,2.29,2.29,0,0,1-1.66.65,3.36,3.36,0,0,1-1.14-.21A3.11,3.11,0,0,1,14,23,2.23,2.23,0,0,1,13.75,20.65Zm5.41,11.57a10.53,10.53,0,0,1-6.54,5.89,1.33,1.33,0,0,1-.34,0,1.19,1.19,0,0,1-.35-2.32A8.17,8.17,0,0,0,17,31.29a1.18,1.18,0,0,1,1.55-.63A1.2,1.2,0,0,1,19.16,32.22Z"/><path class="d" d="M31.07,46.48C12.41,43.06,8.36,79.72,28.54,76.79c6.28-1.64,10.13-9,10.5-16C39.82,50.71,34.4,47.58,31.07,46.48ZM20.53,59.2a1.9,1.9,0,0,1,1.9-.4,1.19,1.19,0,0,1,.26.11,1.27,1.27,0,0,1,1.63.55,2.4,2.4,0,0,1-.78,3.11,2.33,2.33,0,0,1-1.28.37,2.4,2.4,0,0,1-1.88-.89A2.14,2.14,0,0,1,20.53,59.2ZM32.31,69.9a9.71,9.71,0,0,1-5.59,1.77h-.2c-2.4,0-5.26-1.27-6.24-3.87a1.27,1.27,0,0,1,2.38-.9c.56,1.49,2.42,2.2,3.91,2.24a7.37,7.37,0,0,0,4.27-1.31,1.27,1.27,0,1,1,1.47,2.07ZM32.2,56c0,.08-.05.15-.07.22a3,3,0,0,1,0,.42,2.64,2.64,0,0,1-.88,2,2,2,0,0,1-1.32.54,1.73,1.73,0,0,1-1-.3,3.11,3.11,0,0,1-1-3.19,2.28,2.28,0,0,1,1.95-1.84,3.57,3.57,0,0,1,1.72.49A1.45,1.45,0,0,1,32.2,56Z"/><path class="e" d="M62,33.1c-8-24-27.84-17.16-26,3.47a21.8,21.8,0,0,0,5.5-.45,13.08,13.08,0,0,0,1.36-.38l.57-.2.28-.11.17-.08c.42-.21.84-.42,1.24-.66l.51-.33.29-.21.11-.08a2.05,2.05,0,0,1,2.83,0,2,2,0,0,1,0,2.82c-3.48,2.85-7.81,3.66-12.18,3.68C42,61,66.59,54.4,62,33.1Zm-14.8-4.6A3.06,3.06,0,0,1,45.88,30a2.17,2.17,0,0,1-1,.24A2.45,2.45,0,0,1,44,30a2.36,2.36,0,0,1-1.37-1.4,2.61,2.61,0,0,1,1.17-3.08,3,3,0,0,1,3,.07A1.25,1.25,0,0,1,47.4,27v0A2.07,2.07,0,0,1,47.16,28.5Z"/></svg>