<?xml version="1.0" encoding="UTF-8" standalone="no"?>
<!DOCTYPE svg PUBLIC "-//W3C//DTD SVG 1.1//EN" "http://www.w3.org/Graphics/SVG/1.1/DTD/svg11.dtd">
<svg width="100%" height="100%" viewBox="0 0 514 125" version="1.1" xmlns="http://www.w3.org/2000/svg" xmlns:xlink="http://www.w3.org/1999/xlink" xml:space="preserve" xmlns:serif="http://www.serif.com/" style="fill-rule:evenodd;clip-rule:evenodd;stroke-linejoin:round;stroke-miterlimit:2;">
    <g transform="matrix(0.41346,0,0,0.41346,150.51,36.4226)">
        <g>
            <path d="M25.3,27.1C25.2,24.7 23.5,22.6 21.5,21.3C20.2,20.5 18.7,19.9 17.3,20.2C14.2,20.8 11.2,23.7 11.8,28.7C11.8,29.6 11.9,30.5 12.2,31.3C13.2,33.5 15.3,34.6 18.3,34.9C19.8,35.1 21.5,34.8 22.7,33.7C23.2,33.2 23.6,32.6 23.9,32C24.8,30.5 25.4,28.9 25.3,27.1ZM16.6,27.2C16.4,27.5 16.1,27.7 15.7,27.7C15.3,27.7 15,27.5 14.8,27.2C14.6,26.9 14.6,26.5 14.7,26.2C14.8,25.8 15.1,25.6 15.4,25.5C15.7,25.4 16.1,25.5 16.3,25.7C16.4,25.8 16.5,25.9 16.5,26C16.8,26.5 16.8,26.9 16.6,27.2ZM18.7,23.5C18.9,23.1 19.4,22.9 19.9,23C20.1,23.1 20.3,23.2 20.5,23.3C20.5,23.3 20.6,23.3 20.6,23.4C20.8,23.6 21,23.8 21,24.1C21,24.4 20.9,24.7 20.7,24.9C20.5,25.1 20.2,25.2 19.9,25.2C19.7,25.2 19.6,25.2 19.4,25.1C19.1,25 18.9,24.8 18.7,24.6C18.6,24.3 18.5,23.9 18.7,23.5ZM21.1,29.9C20.6,31.2 19.4,32.2 18.1,32.6L17.9,32.6C17.7,32.6 17.5,32.5 17.4,32.2C17.3,31.9 17.5,31.6 17.8,31.5C18.8,31.2 19.7,30.4 20.1,29.4C20.2,29.1 20.5,29 20.8,29.1C21.1,29.3 21.2,29.6 21.1,29.9Z" style="fill:rgb(82,46,145);fill-rule:nonzero;"/>
        </g>
    </g>
    <g transform="matrix(0.41346,0,0,0.41346,150.51,36.4226)">
        <g>
            <path d="M55.4,24.7C51.6,31.8 63.2,36.4 65.4,27C68.2,17.2 55.8,15.3 55.4,24.7ZM61,22.4C61.4,22.3 61.7,22.5 62,22.6C62.4,22.7 62.5,23.6 62.1,24.2C62,24.3 61.8,24.5 61.5,24.5C61.4,24.5 61.2,24.5 61.1,24.4C60.9,24.3 60.3,24.1 60.2,23.5C60,22.9 60.5,22.5 61,22.4ZM57.4,26.1C56.9,26 56.5,25.7 56.6,25.2C56.6,25 56.7,24.8 56.9,24.7C57.1,24.5 57.4,24.5 57.6,24.5L57.8,24.5C58,24.5 58.2,24.7 58.4,24.9C58.6,25.1 58.6,25.3 58.5,25.5C58.4,25.8 58.1,26.2 57.6,26.2C57.5,26.1 57.4,26.1 57.4,26.1ZM62.5,29.5C62.1,30 61.5,30.2 60.6,30.2L60.5,30.2C59.6,30.2 58.8,29.9 58.4,29.4C58.1,29.1 57.9,28.6 57.9,28.1C57.9,27.8 58.1,27.5 58.4,27.5C58.7,27.5 59,27.7 59,28C59,28.2 59.1,28.4 59.3,28.6C59.6,29 60.2,29 60.7,29.1C61.1,29.1 61.6,29.1 61.8,28.8C62,28.6 62.3,28.5 62.6,28.7C62.6,29 62.7,29.3 62.5,29.5Z" style="fill:rgb(236,28,36);fill-rule:nonzero;"/>
        </g>
    </g>
    <g transform="matrix(0.41346,0,0,0.41346,150.51,36.4226)">
        <g>
            <path d="M108.7,29.6C108.5,29.4 108.6,29 108.8,28.8C109,28.6 109.4,28.7 109.6,28.9C110.4,30 111.9,30.5 113.6,30.4C113.7,30.3 113.7,30.1 113.8,30C114.1,29.1 114.2,28.2 114.3,27.3C114.4,25.6 114.3,23.9 113.5,22.4C112.6,20.6 110.6,19.3 108.5,19.3C104.6,19.3 102.3,21.4 102.1,24.1C101.9,26.2 102,28.3 103,30.2C104.3,32.8 106.2,34.7 108.2,34.7C110.6,34.7 112.2,32.9 113.1,31.5C111.2,31.6 109.5,30.9 108.7,29.6ZM107.9,23.4C108,22.9 108.4,22.5 108.9,22.5C109.8,22.4 110.4,23.3 110.2,24.1C110.2,24.2 110.1,24.4 109.9,24.6C109.7,24.7 109.6,24.8 109.4,24.8C109.2,24.8 109,24.7 108.9,24.7C108.7,24.6 108.5,24.5 108.3,24.4C108,24.1 107.8,23.8 107.9,23.4Z" style="fill:rgb(253,185,19);fill-rule:nonzero;"/>
        </g>
    </g>
    <g transform="matrix(0.41346,0,0,0.41346,150.51,36.4226)">
        <g>
            <path d="M137,27.8C136,23.8 133.8,21.8 131,22C129.9,22.1 128.8,22.5 127.9,23.3C126.5,24.5 125.7,26.2 125.6,28C125.5,29.4 125.7,30.9 126.2,32.2C126.9,32.1 127.7,31.9 128.3,31.8C129.1,31.6 130.2,31.1 130.9,30.2C131.1,30 131.4,29.9 131.7,30.1C131.9,30.3 132,30.6 131.8,30.9C130.9,32 129.6,32.6 128.6,32.8C128.4,32.9 127.5,33.1 126.7,33.2C127.3,34.4 128,35.6 129.2,36.3C130.6,37.1 132.5,37.1 133.9,36.4C135.4,35.7 136.4,34.3 137,32.7C137.4,31.1 137.4,29.4 137,27.8ZM130.7,28.1C130.5,28.3 130.2,28.4 129.9,28.4C129.6,28.4 129.3,28.3 129,28.1C128.5,27.7 128.3,27.1 128.6,26.6C128.8,26.3 129.1,26 129.5,26.1L129.6,26.1C129.7,26.1 129.7,26.1 129.8,26C130.2,25.9 130.6,26 130.8,26.3C131,26.5 131.1,26.9 131.1,27.2C131.2,27.5 131,27.8 130.7,28.1Z" style="fill:rgb(35,112,115);fill-rule:nonzero;"/>
        </g>
    </g>
    <g transform="matrix(0.41346,0,0,0.41346,150.51,36.4226)">
        <g>
            <path d="M206,24.5C202.4,13.8 193.5,17 194.6,26.4C196.2,26.5 198.3,26 199.3,25C199.5,24.8 199.9,24.8 200.1,25C200.3,25.2 200.3,25.6 200.1,25.8C199,27 196.7,27.6 194.9,27.6L194.7,27.6C197,36.8 208.1,33.9 206,24.5ZM199.5,22.4C199.4,22.6 199.3,22.9 198.9,23C198.8,23.1 198.6,23.1 198.5,23.1C198.4,23.1 198.2,23.1 198.1,23C197.8,22.9 197.6,22.7 197.5,22.4C197.3,21.9 197.5,21.3 198,21C198.4,20.8 198.9,20.8 199.3,21C199.5,21.1 199.6,21.4 199.5,21.6C199.7,22.1 199.5,22.3 199.5,22.4Z" style="fill:rgb(245,130,32);fill-rule:nonzero;"/>
        </g>
    </g>
    <g transform="matrix(0.41346,0,0,0.41346,150.51,36.4226)">
        <g>
            <path d="M248,27.4C246.1,22.5 242.3,21.1 240.4,21.2C233,21.6 230.5,27.7 233.1,31.3C236.9,37.5 250.5,36.5 248,27.4ZM235.9,27.4C235.1,26.4 235.5,25.4 236.9,25.4C237.9,25.4 238.7,26.9 238.1,27.7C237.5,28 236.5,28.1 235.9,27.4ZM242,32.3C240.9,33.4 238.7,32.9 237.6,31.7C237.3,31.3 236.9,30.7 237.2,30.2C237.8,29.6 239,30.5 240,30.5C240.7,30.5 242,30.1 242.4,30.4C242.7,30.6 242.6,31.7 242,32.3ZM244.6,26.8C244.1,27.7 242.5,27.7 241.9,26.9C241.6,26.3 241.8,25.4 242.4,25.1C242.6,25 242.9,25 243.1,25C244.2,25.1 245.1,25.8 244.6,26.8Z" style="fill:rgb(82,172,104);fill-rule:nonzero;"/>
        </g>
    </g>
    <g transform="matrix(0.41346,0,0,0.41346,150.51,36.4226)">
        <g>
            <path d="M329.4,19.1C324.5,19.6 321.7,22.9 322,27.2C322.3,30.8 324.8,34.5 331.6,34.4C334.9,34.3 338.7,30.7 338.8,26.5C338.9,21.8 334.4,18.7 329.4,19.1ZM331.8,23.5C331.9,23.4 332.1,23.2 332.3,23.1C332.7,23 333.1,23.2 333.2,23.6C333.4,24.2 333.2,24.9 332.6,25.2C332.5,25.2 332.4,25.3 332.3,25.3C332,25.3 331.7,25.2 331.6,24.9C331.3,24.5 331.4,24 331.8,23.5ZM326.9,26.4C326.7,25.9 327,25.3 327.5,25.1C327.8,25 328.1,25 328.4,25.1C328.5,25 328.7,25.1 328.9,25.1C329.3,25.3 329.5,25.9 329.3,26.4C329.1,26.7 328.8,26.9 328.4,27L328,27C327.5,27.1 327.1,26.9 326.9,26.4ZM335.3,26.8C334.8,28.5 334,29.6 332.8,30.2C332.3,30.5 331.6,30.6 331,30.6C330.3,30.6 329.5,30.4 328.6,30.1C328.3,30 328.2,29.7 328.3,29.4C328.4,29.1 328.7,29 329,29.1C330.3,29.6 331.4,29.7 332.3,29.2C333.2,28.8 333.8,27.8 334.2,26.5C334.3,26.2 334.6,26 334.9,26.1C335.2,26.2 335.4,26.5 335.3,26.8Z" style="fill:rgb(0,104,56);fill-rule:nonzero;"/>
        </g>
    </g>
    <g transform="matrix(0.41346,0,0,0.41346,150.51,36.4226)">
        <g>
            <path d="M367.2,0.1C358.5,-1.5 356.6,15.7 366,14.3C368.9,13.5 370.7,10.1 370.9,6.8C371.3,2.1 368.8,0.6 367.2,0.1ZM362.3,6.1C362.5,5.9 362.8,5.8 363.1,5.9L363.2,5.9C363.5,5.8 363.8,5.9 363.9,6.1C364.1,6.5 364,7.1 363.6,7.4C363.4,7.5 363.2,7.6 363.1,7.6C362.8,7.6 362.5,7.5 362.3,7.2C362,7 362,6.4 362.3,6.1ZM367.5,11C366.8,11.5 366,11.8 365.1,11.8L365,11.8C364,11.8 362.8,11.3 362.3,10.2C362.2,9.9 362.3,9.6 362.6,9.5C362.9,9.4 363.2,9.5 363.3,9.8C363.5,10.4 364.3,10.7 365,10.8C365.6,10.8 366.3,10.6 366.8,10.2C367,10 367.4,10.1 367.6,10.3C367.8,10.5 367.8,10.9 367.5,11ZM368,4.6L368,4.9C368,5.2 367.8,5.5 367.5,5.8C367.3,6 367,6 366.7,6C366.5,6 366.3,6 366.1,5.9C365.6,5.7 365.3,5.1 365.5,4.5C365.6,4.1 366.1,3.7 366.6,3.7C367,3.7 367.3,3.8 367.6,3.9C367.9,4 368.1,4.3 368,4.6Z" style="fill:rgb(42,159,188);fill-rule:nonzero;"/>
        </g>
    </g>
    <g transform="matrix(0.41346,0,0,0.41346,150.51,36.4226)">
        <g>
            <path d="M405.5,25.7C404.4,22.9 400.9,21.2 397.2,21.2C390,21.4 385.7,30 392.6,34.9C399.1,39 408,33.6 405.5,25.7ZM398.1,26.9C398.1,26.8 398.1,26.6 398.2,26.5C398.3,26.1 398.7,25.7 399.1,25.7C399.4,25.7 399.7,25.7 399.9,25.9C400.2,26.1 400.3,26.4 400.3,26.8C400.3,27.2 400.1,27.6 399.8,28C399.5,28.3 399.2,28.4 399,28.4L398.8,28.4C398.4,28.3 398.1,27.9 398.1,27.4C398,27.2 398,27 398.1,26.9ZM393.5,28.9C393.2,28.6 393.1,28.1 393.3,27.7C393.5,27.2 393.9,26.8 394.9,27.1C395.4,27.2 395.8,27.7 395.8,28.5C395.8,28.9 395.5,29.3 395,29.3L394.8,29.3C394.6,29.3 394.4,29.2 394.3,29.2C394,29.2 393.7,29.1 393.5,28.9ZM398.5,34.1C398.2,34.2 397.9,34.2 397.6,34.2C396.7,34.2 395.7,33.8 394.9,33.2C394.7,33 394.6,32.7 394.8,32.4C395,32.1 395.3,32.1 395.6,32.3C396.3,32.9 397.3,33.2 398.2,33C399.1,32.8 399.8,32 399.9,31.2C399.9,30.9 400.2,30.7 400.5,30.7C400.8,30.7 401,31 401,31.3C400.8,32.6 399.8,33.7 398.5,34.1Z" style="fill:rgb(198,61,150);fill-rule:nonzero;"/>
        </g>
    </g>
    <g transform="matrix(0.41346,0,0,0.41346,150.51,36.4226)">
        <g>
            <path d="M450.4,26.4C449.7,24.1 445.6,21.8 443.4,23.1C441,22.8 438.4,23.6 436.8,25.4C434.2,28.9 437,35.2 440.9,36.5C446.6,38.2 451.8,32.5 450.4,26.4ZM440.8,26.3C440.9,26.1 441,25.8 441.2,25.6C441.4,25.5 441.6,25.4 441.9,25.4C442.1,25.4 442.2,25.4 442.3,25.5C442.6,25.8 442.9,26.1 442.9,26.5C442.9,27 442.7,27.5 442.3,27.7C442.1,27.8 442,27.8 441.8,27.8C441.4,27.8 441.1,27.6 440.9,27.3C440.6,27 440.8,26.5 440.8,26.3ZM445.2,32.2C445.1,32.4 445,32.5 444.8,32.6C444.2,32.9 443.5,33 442.8,33C442.3,33 441.7,32.9 441.2,32.7C440.6,32.5 440.1,32.2 439.9,31.7C439.7,31.4 439.8,31.1 440.1,31C440.4,30.8 440.7,30.9 440.8,31.2C440.9,31.4 441.2,31.6 441.6,31.7C442.4,32 443.3,32 444.1,31.7C444.1,31.6 444.2,31.5 444.3,31.5C444.5,31.4 444.8,31.4 445,31.5C445.2,31.7 445.3,32 445.2,32.2ZM447.8,28.7C447.6,28.9 447.3,29 447,29C446.7,29 446.5,28.9 446.4,28.9C446.3,28.9 446.1,28.8 445.9,28.6C445.5,28.2 445.7,27.7 445.7,27.6C445.8,27.4 445.8,27.1 446.1,26.9C446.3,26.7 446.6,26.6 446.8,26.7C447,26.7 447.2,26.9 447.4,27.1C447.5,27.1 447.5,27.2 447.5,27.2C447.8,27.4 447.9,27.7 447.9,28C448.1,28.2 448,28.5 447.8,28.7Z" style="fill:rgb(139,197,63);fill-rule:nonzero;"/>
        </g>
    </g>
    <g transform="matrix(0.41346,0,0,0.41346,150.51,36.4226)">
        <g>
            <path d="M511.6,21.1C510.9,20.4 509.9,20 508.9,20C504.9,20.1 503.2,21.3 502.2,24C499.6,30.7 502.3,36.2 506.1,36.5C510.4,36.8 513.3,30.9 513.2,25.4C513.3,23.9 512.8,22.2 511.6,21.1ZM504.2,27.2C504.1,27 504.1,26.9 504,26.7C503.9,26.1 504.2,25.4 504.6,25C505.1,24.5 506,24.4 506.5,24.8C506.7,25 506.8,25.3 506.6,25.6C506.5,25.7 506.4,25.8 506.3,25.8C506.3,26.1 506.3,26.4 506.2,26.7C506,27.2 505.5,27.6 505,27.6C504.9,27.6 504.7,27.6 504.6,27.5C504.5,27.4 504.3,27.3 504.2,27.2ZM508.5,32.3C508.1,32.7 507.4,33 506.7,33L506.6,33C505.8,33 505.1,32.7 504.6,32.1C504.4,31.9 504.4,31.5 504.7,31.3C504.9,31.1 505.3,31.1 505.5,31.4C505.9,31.8 506.4,32 506.7,32C507.2,32 507.6,31.8 507.8,31.6C508,31.4 508.3,31.4 508.6,31.6C508.9,31.8 508.7,32.1 508.5,32.3ZM510.5,27.2C510.4,27.6 510.2,27.9 509.8,28.1C509.6,28.2 509.5,28.2 509.3,28.2C509.2,28.2 509.1,28.2 509,28.1C508.6,28 508.4,27.6 508.4,27.2C508.2,27.1 508.1,26.8 508.2,26.6C508.3,26.2 508.6,25.9 509,25.8C509.4,25.7 509.9,25.8 510.1,26.1C510.5,26.4 510.6,26.8 510.5,27.2Z" style="fill:rgb(242,102,73);fill-rule:nonzero;"/>
        </g>
    </g>
    <g transform="matrix(0.41346,0,0,0.41346,150.51,36.4226)">
        <g>
            <path d="M296,23.4C295.8,20.7 293.7,18.5 291,18.2C289,18.2 288,18.5 286.9,19.6C284.1,23.8 282.6,32.7 289.1,34C294.1,34.2 296.3,27.5 296,23.4ZM287.7,22.9C287.8,22.8 288,22.7 288.3,22.6C288.5,22.6 288.7,22.7 288.9,22.9C289.2,23.2 289.4,23.6 289.4,24C289.4,25.2 288.3,25.1 287.9,25C287.5,24.9 287.3,24.5 287.2,24.2C287.1,23.8 287.3,23.3 287.7,22.9ZM291.5,30.4C291.1,30.8 290.5,31.3 289.8,31.5C289.6,31.6 289.3,31.6 289.1,31.6C288.6,31.6 288.1,31.5 287.6,31.2C287.4,31 287.3,30.7 287.4,30.5C287.6,30.3 287.9,30.2 288.1,30.3C288.5,30.5 289,30.6 289.4,30.5C289.8,30.4 290.2,30.1 290.6,29.7C290.8,29.5 291.2,29.5 291.4,29.7C291.6,29.9 291.7,30.2 291.5,30.4ZM293.8,24.8C293.7,25.4 293.2,25.9 292.6,26.1L292.3,26.1C291.9,26.1 291.5,25.9 291.3,25.5C291.2,25.3 291.2,25 291.3,24.7C291.4,24.3 291.7,24 292,23.8C292.2,23.7 292.3,23.6 292.5,23.6C292.6,23.4 292.9,23.2 293.1,23.3C293.7,23.6 293.9,24.3 293.8,24.8Z" style="fill:rgb(136,73,144);fill-rule:nonzero;"/>
        </g>
    </g>
    <g transform="matrix(0.41346,0,0,0.41346,150.51,36.4226)">
        <g>
            <path d="M475.6,23.6C472.4,23.6 469.3,25.7 468.7,28.8C468,31.9 469.9,35.3 472.8,36.5C478.7,39 483.6,35.3 483.5,28.4C483.5,25.6 480.3,23.5 475.6,23.6ZM472.5,28.5C472.5,27.6 473.2,26.9 474.1,26.9C475,26.9 475.7,27.6 475.7,28.5C475.7,28.9 475.6,29.2 475.4,29.4C475.4,29.5 475.3,29.6 475.2,29.7C475.1,29.8 474.9,29.9 474.6,29.9C474.5,29.9 474.3,30 474.2,30C473.2,30.1 472.5,29.4 472.5,28.5ZM478.8,32.8C478.1,33.8 477.2,34.3 476.1,34.3C475.4,34.3 474.7,34.1 474,33.7C473.7,33.6 473.6,33.2 473.8,33C473.9,32.7 474.3,32.6 474.5,32.8C476.4,33.8 477.4,32.9 477.9,32.2C478.1,32 478.4,31.9 478.6,32C478.9,32.2 478.9,32.6 478.8,32.8ZM479.8,28.8C479.7,29.1 479.5,29.4 479.2,29.5C479,29.6 478.8,29.6 478.7,29.6L478.4,29.6C478.2,29.5 478.1,29.4 477.9,29.3C477.5,28.8 477.6,28.1 478,27.7C478.2,27.5 478.6,27.4 478.9,27.3L479.2,27.3C479.4,27.3 479.5,27.4 479.6,27.5L479.8,27.7C480,28.1 479.9,28.5 479.8,28.8Z" style="fill:rgb(43,56,143);fill-rule:nonzero;"/>
        </g>
    </g>
    <g transform="matrix(0.41346,0,0,0.41346,150.51,36.4226)">
        <path d="M461.1,49.8C461.1,43.8 459,41.1 455.8,41.1C452.9,41.1 451.3,42.8 450.6,45.5C448.1,41.7 445.1,39.9 442,39.9C431.5,39.9 422.9,53 422.9,77.3C422.9,96.4 431.5,104.7 442.1,104.7C444.4,104.7 447.3,103.6 450.2,100.9C448.7,109.7 445.5,111.3 440.3,111.3C435.1,111.3 433.5,109.2 429.6,109.2C424.7,109.2 421.8,112.2 421.8,115.8C421.8,120.7 427.3,124 438.3,124C454.8,124 461.2,116.3 461.2,93.5L461.1,49.8ZM442.1,93.1C437.2,93.1 432.7,87.8 432.7,75.3C432.7,58.8 437.4,52.6 442.1,52.6C445.9,52.6 449.5,56.6 450.8,66.7C451,70.3 451.2,73.7 451.3,77.6C450.8,88.4 446.9,93.1 442.1,93.1Z" style="fill:rgb(35,112,115);fill-rule:nonzero;"/>
    </g>
    <g transform="matrix(0.41346,0,0,0.41346,150.51,36.4226)">
        <path d="M396.5,39.9C386,39.9 377.4,53 377.4,77.3C377.4,96.4 386,106.3 396.6,106.3C407.3,106.3 415.7,96.4 415.7,77.3C415.7,53 407.2,39.9 396.5,39.9ZM396.6,93.6C391.7,93.6 387.2,87.8 387.2,75.3C387.2,58.8 391.9,52.6 396.6,52.6C401.3,52.6 405.8,58.8 405.8,75.3C405.9,87.7 401.7,93.6 396.6,93.6Z" style="fill:rgb(35,112,115);fill-rule:nonzero;"/>
    </g>
    <g transform="matrix(0.41346,0,0,0.41346,150.51,36.4226)">
        <path d="M365.3,104.8C368.4,104.8 370.1,103 370.1,99C370.1,95.1 369.3,91.2 369.1,86.5C367.9,67.9 367.9,57.2 369.1,38.7C369.4,34 370.1,30.1 370.1,26.2C370.1,22.2 368.5,20.3 365.4,20.3C362.8,20.3 360.7,22.5 359.8,28.4C358.6,35.8 357.6,40.6 357.6,55.8C357.6,75.7 357.7,81.5 359.7,96.8C360.5,102.6 362.7,104.8 365.3,104.8Z" style="fill:rgb(35,112,115);fill-rule:nonzero;"/>
    </g>
    <g transform="matrix(0.41346,0,0,0.41346,150.51,36.4226)">
        <path d="M330.8,39.9C320.3,39.9 311.7,53 311.7,77.3C311.7,96.4 320.3,106.3 330.9,106.3C341.6,106.3 350,96.4 350,77.3C350.1,53 341.5,39.9 330.8,39.9ZM331,93.6C326.1,93.6 321.6,87.8 321.6,75.3C321.6,58.8 326.3,52.6 331,52.6C335.7,52.6 340.2,58.8 340.2,75.3C340.2,87.7 336,93.6 331,93.6Z" style="fill:rgb(35,112,115);fill-rule:nonzero;"/>
    </g>
    <g>
        <g transform="matrix(0.41346,0,0,0.41346,150.51,36.4226)">
            <g>
                <path d="M182.6,32.7L180.9,32.7C179.3,32.6 177.3,31.8 176.5,30C176.4,29.7 176.5,29.4 176.8,29.3C177.1,29.2 177.4,29.3 177.5,29.6C178,30.7 179.4,31.6 181,31.7C181.7,31.8 182.7,31.6 183.3,31.2C183.8,29.9 183.9,28.4 183.6,26.9C183,23.3 178.4,20.3 174.6,20.7C172.5,20.9 169.6,23.3 170.5,27.6C171.5,32.6 173.6,35.8 177.4,35.9C179.5,35.9 181.4,34.6 182.6,32.7ZM178.3,24.5C178.5,24.4 178.8,24.3 179,24.4C179.3,24.2 179.7,24.3 179.9,24.5C180.2,24.9 180.4,25.4 180.3,25.9C180.3,26.5 179.8,27.1 179.2,27.2L178.9,27.2C178.3,27.2 177.7,26.8 177.6,26.2C177.5,25.5 177.7,24.9 178.3,24.5Z" style="fill:rgb(0,149,218);fill-rule:nonzero;"/>
            </g>
        </g>
        <g transform="matrix(0.41346,0,0,0.41346,150.51,36.4226)">
            <path d="M288.9,39.8C284.2,39.8 280.5,42.2 278.4,45.7C277.8,42.8 276.1,41.1 273.2,41.1C270,41.1 267.9,43.8 267.9,49.8L267.8,93.6C267.8,102.2 269.6,104.8 273.1,104.8C276.5,104.8 278.6,102.7 278.6,99.1C278.6,95.5 277.7,93.6 277.7,81.8C277.7,74 278.2,68.5 278.5,61.3C279.4,54.9 281.9,52.6 285.7,52.6C290.2,52.6 292.9,56 292.9,70.5C292.9,83.4 292,94.7 292,99.6C292,102.8 294.2,105.2 297.2,105.2C300.2,105.2 302.7,102.9 302.7,99.6C302.7,93.6 303.1,75.7 303.1,59.8C302.8,45.1 297.8,39.8 288.9,39.8Z" style="fill:rgb(0,149,218);fill-rule:nonzero;"/>
            <path d="M240.2,39.9C229.7,39.9 221.1,53 221.1,77.3C221.1,96.4 229.7,106.3 240.3,106.3C250.9,106.3 259.4,96.4 259.4,77.3C259.5,53 250.9,39.9 240.2,39.9ZM240.4,93.6C235.5,93.6 231,87.8 231,75.3C231,58.8 235.7,52.6 240.4,52.6C245.1,52.6 249.6,58.8 249.6,75.3C249.6,87.7 245.4,93.6 240.4,93.6Z" style="fill:rgb(0,149,218);fill-rule:nonzero;"/>
            <path d="M199.4,39.8C194.6,39.8 190,42.5 187.4,46.4C185.6,41.8 182,39.8 177.1,39.8C172.4,39.8 168.1,42.5 165.5,46.1C165,43 163.3,41.1 160.2,41.1C157,41.1 154.9,43.8 154.9,49.8L154.8,93.6C154.8,102.2 156.6,104.8 160.1,104.8C163.5,104.8 165.6,102.7 165.6,99.1C165.6,95.5 164.7,93.6 164.7,81.8C164.7,73.8 165.2,68.2 165.5,60.7C166.6,54.7 169.4,52.5 172.8,52.5C176.6,52.5 178.8,56.5 178.8,69.8C178.8,84.8 178.1,93.1 178.1,98.3C178.1,102.2 179.8,104.8 183.2,104.8C187,104.8 188.9,102.2 188.9,98.4L188.9,62.1C189.7,55.1 192.2,52.5 196.2,52.5C200.8,52.5 203.4,55.9 203.4,70.4C203.4,83.3 202.5,94.6 202.5,99.5C202.5,102.7 204.7,105.1 207.7,105.1C210.7,105.1 213.2,102.8 213.2,99.5C213.2,93.5 213.6,75.6 213.6,59.7C213.3,45.1 208.4,39.8 199.4,39.8Z" style="fill:rgb(0,149,218);fill-rule:nonzero;"/>
            <path d="M130.9,39.8C126.1,39.8 121.5,42.5 118.9,46.4C117.1,41.8 113.5,39.8 108.6,39.8C103.9,39.8 99.6,42.5 97,46.1C96.5,43 94.8,41.1 91.7,41.1C88.5,41.1 86.4,43.8 86.4,49.8L86.3,93.6C86.3,102.2 88.1,104.8 91.6,104.8C95,104.8 97.1,102.7 97.1,99.1C97.1,95.5 96.2,93.6 96.2,81.8C96.2,73.8 96.7,68.2 97,60.7C98.1,54.7 100.9,52.5 104.3,52.5C108.1,52.5 110.3,56.5 110.3,69.8C110.3,84.8 109.7,93.1 109.7,98.3C109.7,102.2 111.4,104.8 114.8,104.8C118.6,104.8 120.5,102.2 120.5,98.4L120.5,62.1C121.3,55.1 123.8,52.5 127.8,52.5C132.4,52.5 135,55.9 135,70.4C135,83.3 134.1,94.6 134.1,99.5C134.1,102.7 136.3,105.1 139.3,105.1C142.3,105.1 144.8,102.8 144.8,99.5C144.8,93.5 145.2,75.6 145.2,59.7C144.8,45.1 139.9,39.8 130.9,39.8Z" style="fill:rgb(0,149,218);fill-rule:nonzero;"/>
            <path d="M59.5,39.9C49,39.9 40.4,53 40.4,77.3C40.4,96.4 49,106.3 59.6,106.3C70.3,106.3 78.7,96.4 78.7,77.3C78.7,53 70.2,39.9 59.5,39.9ZM59.6,93.6C54.7,93.6 50.2,87.8 50.2,75.3C50.2,58.8 54.9,52.6 59.6,52.6C64.3,52.6 68.8,58.8 68.8,75.3C68.9,87.7 64.7,93.6 59.6,93.6Z" style="fill:rgb(0,149,218);fill-rule:nonzero;"/>
            <path d="M18.9,106.1C28.4,106.1 36.2,98.4 36.2,89.7C36.2,84.2 34.5,82.5 31.5,82.5C24.7,82.5 28.5,93.3 18.9,93.3C14.2,93.3 10.1,86.7 10.1,73.5C10.1,58.4 14.4,50.7 18.3,50.7C21,50.7 23,53.6 23,60.6C23,64.5 24.8,66.3 27.7,66.3C30.9,66.3 32.3,63.4 32.3,60.1C32.3,45.5 27.2,39.7 19.2,39.7C8.3,39.8 0,52.4 0,78.5C0,94.6 7.7,106.1 18.9,106.1Z" style="fill:rgb(0,149,218);fill-rule:nonzero;"/>
        </g>
    </g>
    <g transform="matrix(0.41346,0,0,0.41346,150.51,36.4226)">
        <path d="M505,41.1C501.9,41.1 500.2,42.9 500.2,47.5C500.2,66.2 496.5,82 491.5,93.2C486,87 480,70.3 480,47.5C480,43.7 478.2,41.1 474.8,41.1C471.4,41.1 469.9,43.6 469.9,49.2C469.9,72.5 477.1,96.3 486.1,103C482.2,108.5 478.1,111.5 474.5,111.5C469.6,111.5 466.7,114.5 466.7,118.1C466.7,121.6 469.7,124.2 474.5,124.2C490,124.2 510.4,91.4 510.4,49.7C510.4,43.3 508.3,41.1 505,41.1Z" style="fill:rgb(35,112,115);fill-rule:nonzero;"/>
    </g>
</svg>
