<?xml version="1.0" encoding="utf-8"?>
<!-- Generator: Adobe Illustrator 25.2.1, SVG Export Plug-In . SVG Version: 6.00 Build 0)  -->
<svg version="1.1" id="Layer_1" xmlns="http://www.w3.org/2000/svg" xmlns:xlink="http://www.w3.org/1999/xlink" x="0px" y="0px"
	 viewBox="0 0 513.3 124.1" style="enable-background:new 0 0 513.3 124.1;" xml:space="preserve">
<style type="text/css">
	.st0{fill:#522E91;}
	.st1{fill:#EC1C24;}
	.st2{fill:#FDB913;}
	.st3{fill:#237073;}
	.st4{fill:#F58220;}
	.st5{fill:#52AC68;}
	.st6{fill:#006838;}
	.st7{fill:#2A9FBC;}
	.st8{fill:#C63D96;}
	.st9{fill:#8BC53F;}
	.st10{fill:#F26649;}
	.st11{fill:#884990;}
	.st12{fill:#2B388F;}
	.st13{fill:#0095DA;}
</style>
<g>
	<g>
		<path class="st0" d="M25.3,27.1c-0.1-2.4-1.8-4.5-3.8-5.8c-1.3-0.8-2.8-1.4-4.2-1.1c-3.1,0.6-6.1,3.5-5.5,8.5
			c0,0.9,0.1,1.8,0.4,2.6c1,2.2,3.1,3.3,6.1,3.6c1.5,0.2,3.2-0.1,4.4-1.2c0.5-0.5,0.9-1.1,1.2-1.7C24.8,30.5,25.4,28.9,25.3,27.1z
			 M16.6,27.2c-0.2,0.3-0.5,0.5-0.9,0.5c0,0,0,0,0,0c-0.4,0-0.7-0.2-0.9-0.5c-0.2-0.3-0.2-0.7-0.1-1c0.1-0.4,0.4-0.6,0.7-0.7
			c0.3-0.1,0.7,0,0.9,0.2c0.1,0.1,0.2,0.2,0.2,0.3c0,0,0,0,0,0C16.8,26.5,16.8,26.9,16.6,27.2z M18.7,23.5c0.2-0.4,0.7-0.6,1.2-0.5
			c0.2,0.1,0.4,0.2,0.6,0.3c0,0,0.1,0,0.1,0.1c0.2,0.2,0.4,0.4,0.4,0.7c0,0.3-0.1,0.6-0.3,0.8s-0.5,0.3-0.8,0.3
			c-0.2,0-0.3,0-0.5-0.1c-0.3-0.1-0.5-0.3-0.7-0.5C18.6,24.3,18.5,23.9,18.7,23.5z M21.1,29.9c-0.5,1.3-1.7,2.3-3,2.7
			c-0.1,0-0.1,0-0.2,0c-0.2,0-0.4-0.1-0.5-0.4c-0.1-0.3,0.1-0.6,0.4-0.7c1-0.3,1.9-1.1,2.3-2.1c0.1-0.3,0.4-0.4,0.7-0.3
			C21.1,29.3,21.2,29.6,21.1,29.9z"/>
	</g>
</g>
<g>
	<g>
		<path class="st1" d="M55.4,24.7c-3.8,7.1,7.8,11.7,10,2.3C68.2,17.2,55.8,15.3,55.4,24.7z M61,22.4c0.4-0.1,0.7,0.1,1,0.2
			c0.4,0.1,0.5,1,0.1,1.6c-0.1,0.1-0.3,0.3-0.6,0.3c-0.1,0-0.3,0-0.4-0.1c-0.2-0.1-0.8-0.3-0.9-0.9C60,22.9,60.5,22.5,61,22.4z
			 M57.4,26.1c-0.5-0.1-0.9-0.4-0.8-0.9c0-0.2,0.1-0.4,0.3-0.5c0.2-0.2,0.5-0.2,0.7-0.2c0.1,0,0.2,0,0.2,0c0.2,0,0.4,0.2,0.6,0.4
			c0.2,0.2,0.2,0.4,0.1,0.6c-0.1,0.3-0.4,0.7-0.9,0.7C57.5,26.1,57.4,26.1,57.4,26.1z M62.5,29.5c-0.4,0.5-1,0.7-1.9,0.7
			c0,0-0.1,0-0.1,0c-0.9,0-1.7-0.3-2.1-0.8c-0.3-0.3-0.5-0.8-0.5-1.3c0-0.3,0.2-0.6,0.5-0.6c0.3,0,0.6,0.2,0.6,0.5
			c0,0.2,0.1,0.4,0.3,0.6c0.3,0.4,0.9,0.4,1.4,0.5c0.4,0,0.9,0,1.1-0.3c0.2-0.2,0.5-0.3,0.8-0.1C62.6,29,62.7,29.3,62.5,29.5z"/>
	</g>
</g>
<g>
	<g>
		<path class="st2" d="M108.7,29.6c-0.2-0.2-0.1-0.6,0.1-0.8c0.2-0.2,0.6-0.1,0.8,0.1c0.8,1.1,2.3,1.6,4,1.5
			c0.1-0.1,0.1-0.3,0.2-0.4c0.3-0.9,0.4-1.8,0.5-2.7c0.1-1.7,0-3.4-0.8-4.9c-0.9-1.8-2.9-3.1-5-3.1c-3.9,0-6.2,2.1-6.4,4.8
			c-0.2,2.1-0.1,4.2,0.9,6.1c1.3,2.6,3.2,4.5,5.2,4.5c2.4,0,4-1.8,4.9-3.2C111.2,31.6,109.5,30.9,108.7,29.6z M107.9,23.4
			c0.1-0.5,0.5-0.9,1-0.9c0.9-0.1,1.5,0.8,1.3,1.6c0,0.1-0.1,0.3-0.3,0.5c-0.2,0.1-0.3,0.2-0.5,0.2c-0.2,0-0.4-0.1-0.5-0.1
			c-0.2-0.1-0.4-0.2-0.6-0.3C108,24.1,107.8,23.8,107.9,23.4z"/>
	</g>
</g>
<g>
	<g>
		<path class="st3" d="M137,27.8c-1-4-3.2-6-6-5.8c-1.1,0.1-2.2,0.5-3.1,1.3c-1.4,1.2-2.2,2.9-2.3,4.7c-0.1,1.4,0.1,2.9,0.6,4.2
			c0.7-0.1,1.5-0.3,2.1-0.4c0.8-0.2,1.9-0.7,2.6-1.6c0.2-0.2,0.5-0.3,0.8-0.1c0.2,0.2,0.3,0.5,0.1,0.8c-0.9,1.1-2.2,1.7-3.2,1.9
			c-0.2,0.1-1.1,0.3-1.9,0.4c0.6,1.2,1.3,2.4,2.5,3.1c1.4,0.8,3.3,0.8,4.7,0.1c1.5-0.7,2.5-2.1,3.1-3.7
			C137.4,31.1,137.4,29.4,137,27.8z M130.7,28.1c-0.2,0.2-0.5,0.3-0.8,0.3c-0.3,0-0.6-0.1-0.9-0.3c-0.5-0.4-0.7-1-0.4-1.5
			c0.2-0.3,0.5-0.6,0.9-0.5c0,0,0.1,0,0.1,0c0.1,0,0.1,0,0.2-0.1c0.4-0.1,0.8,0,1,0.3c0.2,0.2,0.3,0.6,0.3,0.9
			C131.2,27.5,131,27.8,130.7,28.1z"/>
	</g>
</g>
<g>
	<g>
		<path class="st4" d="M206,24.5c-3.6-10.7-12.5-7.5-11.4,1.9c1.6,0.1,3.7-0.4,4.7-1.4c0.2-0.2,0.6-0.2,0.8,0c0.2,0.2,0.2,0.6,0,0.8
			c-1.1,1.2-3.4,1.8-5.2,1.8c-0.1,0-0.1,0-0.2,0C197,36.8,208.1,33.9,206,24.5z M199.5,22.4c-0.1,0.2-0.2,0.5-0.6,0.6
			c-0.1,0.1-0.3,0.1-0.4,0.1c-0.1,0-0.3,0-0.4-0.1c-0.3-0.1-0.5-0.3-0.6-0.6c-0.2-0.5,0-1.1,0.5-1.4c0.4-0.2,0.9-0.2,1.3,0
			c0.2,0.1,0.3,0.4,0.2,0.6c0,0,0,0,0,0C199.7,22.1,199.5,22.3,199.5,22.4z"/>
	</g>
</g>
<g>
	<g>
		<path class="st5" d="M248,27.4c-1.9-4.9-5.7-6.3-7.6-6.2c-7.4,0.4-9.9,6.5-7.3,10.1C236.9,37.5,250.5,36.5,248,27.4z M235.9,27.4
			c-0.8-1-0.4-2,1-2c1,0,1.8,1.5,1.2,2.3C237.5,28,236.5,28.1,235.9,27.4z M242,32.3c-1.1,1.1-3.3,0.6-4.4-0.6
			c-0.3-0.4-0.7-1-0.4-1.5c0.6-0.6,1.8,0.3,2.8,0.3c0.7,0,2-0.4,2.4-0.1C242.7,30.6,242.6,31.7,242,32.3z M244.6,26.8
			c-0.5,0.9-2.1,0.9-2.7,0.1c-0.3-0.6-0.1-1.5,0.5-1.8c0.2-0.1,0.5-0.1,0.7-0.1C244.2,25.1,245.1,25.8,244.6,26.8z"/>
	</g>
</g>
<g>
	<g>
		<path class="st6" d="M329.4,19.1c-4.9,0.5-7.7,3.8-7.4,8.1c0.3,3.6,2.8,7.3,9.6,7.2c3.3-0.1,7.1-3.7,7.2-7.9
			C338.9,21.8,334.4,18.7,329.4,19.1z M331.8,23.5c0.1-0.1,0.3-0.3,0.5-0.4c0.4-0.1,0.8,0.1,0.9,0.5c0.2,0.6,0,1.3-0.6,1.6
			c-0.1,0-0.2,0.1-0.3,0.1c-0.3,0-0.6-0.1-0.7-0.4C331.3,24.5,331.4,24,331.8,23.5z M326.9,26.4c-0.2-0.5,0.1-1.1,0.6-1.3
			c0.3-0.1,0.6-0.1,0.9,0c0.1-0.1,0.3,0,0.5,0c0.4,0.2,0.6,0.8,0.4,1.3c-0.2,0.3-0.5,0.5-0.9,0.6c-0.1,0-0.2,0-0.4,0
			C327.5,27.1,327.1,26.9,326.9,26.4z M335.3,26.8c-0.5,1.7-1.3,2.8-2.5,3.4c-0.5,0.3-1.2,0.4-1.8,0.4c-0.7,0-1.5-0.2-2.4-0.5
			c-0.3-0.1-0.4-0.4-0.3-0.7c0.1-0.3,0.4-0.4,0.7-0.3c1.3,0.5,2.4,0.6,3.3,0.1c0.9-0.4,1.5-1.4,1.9-2.7c0.1-0.3,0.4-0.5,0.7-0.4
			C335.2,26.2,335.4,26.5,335.3,26.8z"/>
	</g>
</g>
<g>
	<g>
		<path class="st7" d="M367.2,0.1c-8.7-1.6-10.6,15.6-1.2,14.2c2.9-0.8,4.7-4.2,4.9-7.5C371.3,2.1,368.8,0.6,367.2,0.1z M362.3,6.1
			c0.2-0.2,0.5-0.3,0.8-0.2c0,0,0.1,0,0.1,0c0.3-0.1,0.6,0,0.7,0.2c0.2,0.4,0.1,1-0.3,1.3c-0.2,0.1-0.4,0.2-0.5,0.2
			c-0.3,0-0.6-0.1-0.8-0.4C362,7,362,6.4,362.3,6.1z M367.5,11c-0.7,0.5-1.5,0.8-2.4,0.8c0,0-0.1,0-0.1,0c-1,0-2.2-0.5-2.7-1.6
			c-0.1-0.3,0-0.6,0.3-0.7c0.3-0.1,0.6,0,0.7,0.3c0.2,0.6,1,0.9,1.7,1c0.6,0,1.3-0.2,1.8-0.6c0.2-0.2,0.6-0.1,0.8,0.1
			C367.8,10.5,367.8,10.9,367.5,11z M368,4.6C367.9,4.6,367.9,4.6,368,4.6c0,0.2,0,0.2,0,0.3c0,0.3-0.2,0.6-0.5,0.9
			c-0.2,0.2-0.5,0.2-0.8,0.2c-0.2,0-0.4,0-0.6-0.1c-0.5-0.2-0.8-0.8-0.6-1.4c0.1-0.4,0.6-0.8,1.1-0.8c0.4,0,0.7,0.1,1,0.2
			C367.9,4,368.1,4.3,368,4.6z"/>
	</g>
</g>
<g>
	<g>
		<path class="st8" d="M405.5,25.7c-1.1-2.8-4.6-4.5-8.3-4.5c-7.2,0.2-11.5,8.8-4.6,13.7C399.1,39,408,33.6,405.5,25.7z M398.1,26.9
			c0-0.1,0-0.3,0.1-0.4c0.1-0.4,0.5-0.8,0.9-0.8c0.3,0,0.6,0,0.8,0.2c0.3,0.2,0.4,0.5,0.4,0.9c0,0.4-0.2,0.8-0.5,1.2
			c-0.3,0.3-0.6,0.4-0.8,0.4c-0.1,0-0.1,0-0.2,0c-0.4-0.1-0.7-0.5-0.7-1C398,27.2,398,27,398.1,26.9z M393.5,28.9
			c-0.3-0.3-0.4-0.8-0.2-1.2c0.2-0.5,0.6-0.9,1.6-0.6c0.5,0.1,0.9,0.6,0.9,1.4c0,0.4-0.3,0.8-0.8,0.8c-0.1,0-0.2,0-0.2,0
			c-0.2,0-0.4-0.1-0.5-0.1C394,29.2,393.7,29.1,393.5,28.9z M398.5,34.1c-0.3,0.1-0.6,0.1-0.9,0.1c-0.9,0-1.9-0.4-2.7-1
			c-0.2-0.2-0.3-0.5-0.1-0.8s0.5-0.3,0.8-0.1c0.7,0.6,1.7,0.9,2.6,0.7c0.9-0.2,1.6-1,1.7-1.8c0-0.3,0.3-0.5,0.6-0.5
			c0.3,0,0.5,0.3,0.5,0.6C400.8,32.6,399.8,33.7,398.5,34.1z"/>
	</g>
</g>
<g>
	<g>
		<path class="st9" d="M450.4,26.4c-0.7-2.3-4.8-4.6-7-3.3c-2.4-0.3-5,0.5-6.6,2.3c-2.6,3.5,0.2,9.8,4.1,11.1
			C446.6,38.2,451.8,32.5,450.4,26.4z M440.8,26.3c0.1-0.2,0.2-0.5,0.4-0.7c0.2-0.1,0.4-0.2,0.7-0.2c0.2,0,0.3,0,0.4,0.1
			c0.3,0.3,0.6,0.6,0.6,1c0,0.5-0.2,1-0.6,1.2c-0.2,0.1-0.3,0.1-0.5,0.1c-0.4,0-0.7-0.2-0.9-0.5C440.6,27,440.8,26.5,440.8,26.3z
			 M445.2,32.2c-0.1,0.2-0.2,0.3-0.4,0.4c-0.6,0.3-1.3,0.4-2,0.4c-0.5,0-1.1-0.1-1.6-0.3c-0.6-0.2-1.1-0.5-1.3-1
			c-0.2-0.3-0.1-0.6,0.2-0.7c0.3-0.2,0.6-0.1,0.7,0.2c0.1,0.2,0.4,0.4,0.8,0.5c0.8,0.3,1.7,0.3,2.5,0c0-0.1,0.1-0.2,0.2-0.2
			c0.2-0.1,0.5-0.1,0.7,0C445.2,31.7,445.3,32,445.2,32.2z M447.8,28.7c-0.2,0.2-0.5,0.3-0.8,0.3c-0.3,0-0.5-0.1-0.6-0.1
			c-0.1,0-0.3-0.1-0.5-0.3c-0.4-0.4-0.2-0.9-0.2-1c0.1-0.2,0.1-0.5,0.4-0.7c0.2-0.2,0.5-0.3,0.7-0.2c0.2,0,0.4,0.2,0.6,0.4
			c0,0,0,0,0,0c0.1,0,0.1,0.1,0.1,0.1c0.3,0.2,0.4,0.5,0.4,0.8C448.1,28.2,448,28.5,447.8,28.7z"/>
	</g>
</g>
<g>
	<g>
		<path class="st10" d="M511.6,21.1c-0.7-0.7-1.7-1.1-2.7-1.1c-4,0.1-5.7,1.3-6.7,4c-2.6,6.7,0.1,12.2,3.9,12.5
			c4.3,0.3,7.2-5.6,7.1-11.1C513.3,23.9,512.8,22.2,511.6,21.1z M504.2,27.2c-0.1-0.2-0.1-0.3-0.2-0.5c-0.1-0.6,0.2-1.3,0.6-1.7
			c0.5-0.5,1.4-0.6,1.9-0.2c0.2,0.2,0.3,0.5,0.1,0.8c-0.1,0.1-0.2,0.2-0.3,0.2c0,0.3,0,0.6-0.1,0.9c-0.2,0.5-0.7,0.9-1.2,0.9
			c-0.1,0-0.3,0-0.4-0.1C504.5,27.4,504.3,27.3,504.2,27.2z M508.5,32.3c-0.4,0.4-1.1,0.7-1.8,0.7c0,0,0,0-0.1,0
			c-0.8,0-1.5-0.3-2-0.9c-0.2-0.2-0.2-0.6,0.1-0.8c0.2-0.2,0.6-0.2,0.8,0.1c0.4,0.4,0.9,0.6,1.2,0.6c0.5,0,0.9-0.2,1.1-0.4
			c0.2-0.2,0.5-0.2,0.8,0S508.7,32.1,508.5,32.3z M510.5,27.2c-0.1,0.4-0.3,0.7-0.7,0.9c-0.2,0.1-0.3,0.1-0.5,0.1
			c-0.1,0-0.2,0-0.3-0.1c-0.4-0.1-0.6-0.5-0.6-0.9c-0.2-0.1-0.3-0.4-0.2-0.6c0.1-0.4,0.4-0.7,0.8-0.8c0.4-0.1,0.9,0,1.1,0.3
			C510.5,26.4,510.6,26.8,510.5,27.2z"/>
	</g>
</g>
<g>
	<g>
		<path class="st11" d="M296,23.4c-0.2-2.7-2.3-4.9-5-5.2c-2,0-3,0.3-4.1,1.4c-2.8,4.2-4.3,13.1,2.2,14.4
			C294.1,34.2,296.3,27.5,296,23.4z M287.7,22.9c0.1-0.1,0.3-0.2,0.6-0.3c0.2,0,0.4,0.1,0.6,0.3c0.3,0.3,0.5,0.7,0.5,1.1
			c0,1.2-1.1,1.1-1.5,1c0,0,0,0,0,0c-0.4-0.1-0.6-0.5-0.7-0.8C287.1,23.8,287.3,23.3,287.7,22.9z M291.5,30.4
			c-0.4,0.4-1,0.9-1.7,1.1c-0.2,0.1-0.5,0.1-0.7,0.1c-0.5,0-1-0.1-1.5-0.4c-0.2-0.2-0.3-0.5-0.2-0.7c0.2-0.2,0.5-0.3,0.7-0.2
			c0.4,0.2,0.9,0.3,1.3,0.2c0.4-0.1,0.8-0.4,1.2-0.8c0.2-0.2,0.6-0.2,0.8,0S291.7,30.2,291.5,30.4z M293.8,24.8
			c-0.1,0.6-0.6,1.1-1.2,1.3c-0.1,0-0.2,0-0.3,0c-0.4,0-0.8-0.2-1-0.6c-0.1-0.2-0.1-0.5,0-0.8c0.1-0.4,0.4-0.7,0.7-0.9
			c0.2-0.1,0.3-0.2,0.5-0.2c0,0,0,0,0,0c0.1-0.2,0.4-0.4,0.6-0.3C293.7,23.6,293.9,24.3,293.8,24.8z"/>
	</g>
</g>
<g>
	<g>
		<path class="st12" d="M475.6,23.6c-3.2,0-6.3,2.1-6.9,5.2c-0.7,3.1,1.2,6.5,4.1,7.7c5.9,2.5,10.8-1.2,10.7-8.1
			C483.5,25.6,480.3,23.5,475.6,23.6z M472.5,28.5c0-0.9,0.7-1.6,1.6-1.6s1.6,0.7,1.6,1.6c0,0.4-0.1,0.7-0.3,0.9
			c0,0.1-0.1,0.2-0.2,0.3c-0.1,0.1-0.3,0.2-0.6,0.2c-0.1,0-0.3,0.1-0.4,0.1C473.2,30.1,472.5,29.4,472.5,28.5z M478.8,32.8
			c-0.7,1-1.6,1.5-2.7,1.5c-0.7,0-1.4-0.2-2.1-0.6c-0.3-0.1-0.4-0.5-0.2-0.7c0.1-0.3,0.5-0.4,0.7-0.2c1.9,1,2.9,0.1,3.4-0.6
			c0.2-0.2,0.5-0.3,0.7-0.2C478.9,32.2,478.9,32.6,478.8,32.8z M479.8,28.8c-0.1,0.3-0.3,0.6-0.6,0.7c-0.2,0.1-0.4,0.1-0.5,0.1
			c-0.1,0-0.2,0-0.3,0c-0.2-0.1-0.3-0.2-0.5-0.3c-0.4-0.5-0.3-1.2,0.1-1.6c0.2-0.2,0.6-0.3,0.9-0.4l0,0l0.2,0c0,0,0.1,0,0.1,0
			c0.2,0,0.3,0.1,0.4,0.2c0,0,0,0,0.1,0.1c0,0,0.1,0.1,0.1,0.1C480,28.1,479.9,28.5,479.8,28.8z"/>
	</g>
</g>
<path class="st3" d="M461.1,49.8c0-6-2.1-8.7-5.3-8.7c-2.9,0-4.5,1.7-5.2,4.4c-2.5-3.8-5.5-5.6-8.6-5.6c-10.5,0-19.1,13.1-19.1,37.4
	c0,19.1,8.6,27.4,19.2,27.4c2.3,0,5.2-1.1,8.1-3.8c-1.5,8.8-4.7,10.4-9.9,10.4c-5.2,0-6.8-2.1-10.7-2.1c-4.9,0-7.8,3-7.8,6.6
	c0,4.9,5.5,8.2,16.5,8.2c16.5,0,22.9-7.7,22.9-30.5L461.1,49.8z M442.1,93.1c-4.9,0-9.4-5.3-9.4-17.8c0-16.5,4.7-22.7,9.4-22.7
	c3.8,0,7.4,4,8.7,14.1c0.2,3.6,0.4,7,0.5,10.9C450.8,88.4,446.9,93.1,442.1,93.1z"/>
<path class="st3" d="M396.5,39.9c-10.5,0-19.1,13.1-19.1,37.4c0,19.1,8.6,29,19.2,29c10.7,0,19.1-9.9,19.1-29
	C415.7,53,407.2,39.9,396.5,39.9z M396.6,93.6c-4.9,0-9.4-5.8-9.4-18.3c0-16.5,4.7-22.7,9.4-22.7s9.2,6.2,9.2,22.7
	C405.9,87.7,401.7,93.6,396.6,93.6z"/>
<path class="st3" d="M365.3,104.8c3.1,0,4.8-1.8,4.8-5.8c0-3.9-0.8-7.8-1-12.5c-1.2-18.6-1.2-29.3,0-47.8c0.3-4.7,1-8.6,1-12.5
	c0-4-1.6-5.9-4.7-5.9c-2.6,0-4.7,2.2-5.6,8.1c-1.2,7.4-2.2,12.2-2.2,27.4c0,19.9,0.1,25.7,2.1,41
	C360.5,102.6,362.7,104.8,365.3,104.8z"/>
<path class="st3" d="M330.8,39.9c-10.5,0-19.1,13.1-19.1,37.4c0,19.1,8.6,29,19.2,29c10.7,0,19.1-9.9,19.1-29
	C350.1,53,341.5,39.9,330.8,39.9z M331,93.6c-4.9,0-9.4-5.8-9.4-18.3c0-16.5,4.7-22.7,9.4-22.7s9.2,6.2,9.2,22.7
	C340.2,87.7,336,93.6,331,93.6z"/>
<g>
	<g>
		<g>
			<path class="st13" d="M181.2,32.7c-0.1,0-0.2,0-0.3,0c-1.6-0.1-3.6-0.9-4.4-2.7c-0.1-0.3,0-0.6,0.3-0.7c0.3-0.1,0.6,0,0.7,0.3
				c0.5,1.1,1.9,2,3.5,2.1c0.7,0.1,1.7-0.1,2.3-0.5c0.5-1.3,0.6-2.8,0.3-4.3c-0.6-3.6-5.2-6.6-9-6.2c-2.1,0.2-5,2.6-4.1,6.9
				c1,5,3.1,8.2,6.9,8.3c2.1,0,4-1.3,5.2-3.2C182.1,32.7,181.7,32.7,181.2,32.7z M178.3,24.5c0.2-0.1,0.5-0.2,0.7-0.1
				c0.3-0.2,0.7-0.1,0.9,0.1c0.3,0.4,0.5,0.9,0.4,1.4c0,0.6-0.5,1.2-1.1,1.3c-0.1,0-0.2,0-0.3,0c-0.6,0-1.2-0.4-1.3-1
				C177.5,25.5,177.7,24.9,178.3,24.5z"/>
		</g>
	</g>
	<g>
		<path class="st13" d="M288.9,39.8c-4.7,0-8.4,2.4-10.5,5.9c-0.6-2.9-2.3-4.6-5.2-4.6c-3.2,0-5.3,2.7-5.3,8.7l-0.1,43.8
			c0,8.6,1.8,11.2,5.3,11.2c3.4,0,5.5-2.1,5.5-5.7s-0.9-5.5-0.9-17.3c0-7.8,0.5-13.3,0.8-20.5c0.9-6.4,3.4-8.7,7.2-8.7
			c4.5,0,7.2,3.4,7.2,17.9c0,12.9-0.9,24.2-0.9,29.1c0,3.2,2.2,5.6,5.2,5.6s5.5-2.3,5.5-5.6c0-6,0.4-23.9,0.4-39.8
			C302.8,45.1,297.8,39.8,288.9,39.8z"/>
		<path class="st13" d="M240.2,39.9c-10.5,0-19.1,13.1-19.1,37.4c0,19.1,8.6,29,19.2,29s19.1-9.9,19.1-29
			C259.5,53,250.9,39.9,240.2,39.9z M240.4,93.6c-4.9,0-9.4-5.8-9.4-18.3c0-16.5,4.7-22.7,9.4-22.7s9.2,6.2,9.2,22.7
			C249.6,87.7,245.4,93.6,240.4,93.6z"/>
		<path class="st13" d="M199.4,39.8c-4.8,0-9.4,2.7-12,6.6c-1.8-4.6-5.4-6.6-10.3-6.6c-4.7,0-9,2.7-11.6,6.3c-0.5-3.1-2.2-5-5.3-5
			c-3.2,0-5.3,2.7-5.3,8.7l-0.1,43.8c0,8.6,1.8,11.2,5.3,11.2c3.4,0,5.5-2.1,5.5-5.7s-0.9-5.5-0.9-17.3c0-8,0.5-13.6,0.8-21.1
			c1.1-6,3.9-8.2,7.3-8.2c3.8,0,6,4,6,17.3c0,15-0.7,23.3-0.7,28.5c0,3.9,1.7,6.5,5.1,6.5c3.8,0,5.7-2.6,5.7-6.4
			c0-6.4,0-13.9,0-18.7V62.1c0.8-7,3.3-9.6,7.3-9.6c4.6,0,7.2,3.4,7.2,17.9c0,12.9-0.9,24.2-0.9,29.1c0,3.2,2.2,5.6,5.2,5.6
			s5.5-2.3,5.5-5.6c0-6,0.4-23.9,0.4-39.8C213.3,45.1,208.4,39.8,199.4,39.8z"/>
		<path class="st13" d="M130.9,39.8c-4.8,0-9.4,2.7-12,6.6c-1.8-4.6-5.4-6.6-10.3-6.6c-4.7,0-9,2.7-11.6,6.3c-0.5-3.1-2.2-5-5.3-5
			c-3.2,0-5.3,2.7-5.3,8.7l-0.1,43.8c0,8.6,1.8,11.2,5.3,11.2c3.4,0,5.5-2.1,5.5-5.7s-0.9-5.5-0.9-17.3c0-8,0.5-13.6,0.8-21.1
			c1.1-6,3.9-8.2,7.3-8.2c3.8,0,6,4,6,17.3c0,15-0.6,23.3-0.6,28.5c0,3.9,1.7,6.5,5.1,6.5c3.8,0,5.7-2.6,5.7-6.4
			c0-6.4,0-13.9,0-18.7V62.1c0.8-7,3.3-9.6,7.3-9.6c4.6,0,7.2,3.4,7.2,17.9c0,12.9-0.9,24.2-0.9,29.1c0,3.2,2.2,5.6,5.2,5.6
			c3,0,5.5-2.3,5.5-5.6c0-6,0.4-23.9,0.4-39.8C144.8,45.1,139.9,39.8,130.9,39.8z"/>
		<path class="st13" d="M59.5,39.9C49,39.9,40.4,53,40.4,77.3c0,19.1,8.6,29,19.2,29c10.7,0,19.1-9.9,19.1-29
			C78.7,53,70.2,39.9,59.5,39.9z M59.6,93.6c-4.9,0-9.4-5.8-9.4-18.3c0-16.5,4.7-22.7,9.4-22.7s9.2,6.2,9.2,22.7
			C68.9,87.7,64.7,93.6,59.6,93.6z"/>
		<path class="st13" d="M18.9,106.1c9.5,0,17.3-7.7,17.3-16.4c0-5.5-1.7-7.2-4.7-7.2c-6.8,0-3,10.8-12.6,10.8
			c-4.7,0-8.8-6.6-8.8-19.8c0-15.1,4.3-22.8,8.2-22.8c2.7,0,4.7,2.9,4.7,9.9c0,3.9,1.8,5.7,4.7,5.7c3.2,0,4.6-2.9,4.6-6.2
			c0-14.6-5.1-20.4-13.1-20.4C8.3,39.8,0,52.4,0,78.5C0,94.6,7.7,106.1,18.9,106.1z"/>
	</g>
</g>
<path class="st3" d="M505,41.1c-3.1,0-4.8,1.8-4.8,6.4c0,18.7-3.7,34.5-8.7,45.7c-5.5-6.2-11.5-22.9-11.5-45.7
	c0-3.8-1.8-6.4-5.2-6.4s-4.9,2.5-4.9,8.1c0,23.3,7.2,47.1,16.2,53.8c-3.9,5.5-8,8.5-11.6,8.5c-4.9,0-7.8,3-7.8,6.6
	c0,3.5,3,6.1,7.8,6.1c15.5,0,35.9-32.8,35.9-74.5C510.4,43.3,508.3,41.1,505,41.1z"/>
</svg>
