<?xml version="1.0" encoding="utf-8"?>
<!-- Generator: Adobe Illustrator 25.2.1, SVG Export Plug-In . SVG Version: 6.00 Build 0)  -->
<svg version="1.1" id="Layer_1" xmlns="http://www.w3.org/2000/svg" xmlns:xlink="http://www.w3.org/1999/xlink" x="0px" y="0px"
	 viewBox="0 0 160 160" style="enable-background:new 0 0 160 160;" xml:space="preserve">
<style type="text/css">
	.st0{fill:#522E91;}
	.st1{fill:#F58220;}
	.st2{fill:#2A9FBC;}
</style>
<g>
	<g>
		<path class="st0" d="M71.2,41.4c-0.6-10.7-8-20.2-17.1-26c-5.6-3.7-12.4-6.3-19-4.9C21.2,13.3,7.9,26.3,10.4,48.6
			c-0.1,3.9,0.3,7.9,2,11.4c4.6,9.7,13.9,15,27.4,16.3c6.9,0.7,14.5-0.5,19.6-5.2c2.3-2.2,4-4.9,5.5-7.7
			C68.6,56.6,71.6,49.1,71.2,41.4z M32.2,41.8c-0.8,1.4-2.3,2.2-4,2.3c-0.1,0-0.1,0-0.2,0c-1.7,0-3.2-0.8-4.1-2
			c-0.9-1.3-1.1-2.9-0.5-4.5s1.8-2.8,3.3-3.3c1.5-0.4,3.1-0.1,4.2,1c0.5,0.4,0.8,0.9,1,1.5c0,0.1,0.1,0.1,0.1,0.2
			C33,38.5,33,40.4,32.2,41.8z M41.4,25.2c1-1.8,3.1-2.6,5.3-2.1c1.1,0.2,1.9,0.8,2.7,1.3c0.2,0.1,0.4,0.2,0.6,0.4
			c1,0.7,1.7,1.9,1.8,3.2s-0.3,2.5-1.2,3.4s-2.1,1.3-3.4,1.3c-0.7,0-1.5-0.1-2.3-0.4c-1.3-0.5-2.4-1.2-3.1-2.2
			C40.8,28.6,40.6,26.7,41.4,25.2z M52.3,53.7c-2.4,5.7-7.4,10.2-13.3,12c-0.2,0.1-0.5,0.1-0.7,0.1c-1,0-2-0.7-2.3-1.7
			c-0.4-1.3,0.3-2.6,1.6-3c4.6-1.4,8.4-4.9,10.3-9.3c0.5-1.2,1.9-1.8,3.2-1.3C52.2,51,52.8,52.4,52.3,53.7z"/>
	</g>
</g>
<g>
	<g>
		<path class="st1" d="M149.3,53C131-1.8,85.5,14.8,91.1,62.6c8.1,0.4,19.1-2.2,24.2-7.3c1.1-1.1,2.8-1.1,3.9,0s1.1,2.8,0,3.9
			c-5.9,5.9-17.1,8.9-26.3,8.9c-0.3,0-0.6,0-0.9,0C103.2,116,159.8,101.4,149.3,53z M116,42.6c-0.4,0.8-1.2,2.4-2.9,3.3
			c-0.7,0.4-1.5,0.5-2.2,0.5s-1.3-0.1-2-0.4c-1.5-0.6-2.6-1.7-3.1-3.1c-0.9-2.5,0.2-5.5,2.6-6.9c2-1.2,4.7-1.1,6.8,0.2
			c1.1,0.7,1.6,1.9,1.2,3.1l0,0C116.9,40.8,116.3,42.1,116,42.6z"/>
	</g>
</g>
<g>
	<g>
		<path class="st2" d="M79.9,83c-41.9-7.7-51,74.7-5.7,68.1c14.1-3.7,22.7-20.2,23.6-35.9C99.5,92.5,87.3,85.5,79.9,83z M56.5,111.9
			c1-1,2.5-1.3,3.9-0.8c0.2,0.1,0.4,0.1,0.5,0.2c1.2-0.5,2.7-0.1,3.3,1.1c1.2,2.2,0.5,5-1.6,6.4c-0.8,0.5-1.7,0.8-2.6,0.8
			c-1.5,0-2.9-0.6-3.8-1.8C54.8,116,55,113.4,56.5,111.9z M81.5,135.4c-3.3,2.4-7.4,3.6-11.4,3.6c-0.1,0-0.3,0-0.4,0
			c-4.9-0.1-10.7-2.6-12.7-7.9c-0.5-1.3,0.2-2.8,1.5-3.3s2.8,0.2,3.3,1.5c1.1,3,4.9,4.5,8,4.6c3.1,0,6.2-0.9,8.7-2.7
			c1.2-0.8,2.8-0.6,3.6,0.6C82.9,133,82.6,134.6,81.5,135.4z M83.5,104.4c-0.1,0.2-0.1,0.3-0.2,0.4c0.1,0.3,0.1,0.6,0.1,0.8
			c0,1.6-0.8,3.1-2.4,4.1c-1.1,0.7-2.4,1.1-3.7,1.1c-0.9,0-1.9-0.2-2.7-0.6c-2.4-1.2-3.6-4-2.8-6.5c0.7-2.1,2.9-3.6,5.4-3.7
			c1.8-0.1,3.4,0.5,4.8,1C83.3,101.6,84,103.1,83.5,104.4z"/>
	</g>
</g>
</svg>
